<?xml version="1.0" encoding="utf-8"?>
<!-- Generator: Adobe Illustrator 24.1.0, SVG Export Plug-In . SVG Version: 6.00 Build 0)  -->
<svg version="1.1" id="Layer_1" xmlns="http://www.w3.org/2000/svg" xmlns:xlink="http://www.w3.org/1999/xlink" x="0px" y="0px"
	 width="306px" height="228px" viewBox="0 0 306 228" style="enable-background:new 0 0 306 228;" xml:space="preserve">
<style type="text/css">
	.st0{fill:#00B9CD;}
	.st1{fill:#231F20;}
	.st2{fill:#F9A51A;}
	.st3{fill:#C8414E;}
</style>
<g>
	<g>
		<path class="st0" d="M67.6,219.9c0,0.8,0.1,1.4,0.4,2c0.3,0.5,0.6,1,1.1,1.3c0.5,0.3,1,0.6,1.6,0.8c0.6,0.2,1.3,0.2,2,0.2
			c0.8,0,1.4-0.1,2-0.3c0.5-0.2,1-0.4,1.3-0.7c0.3-0.3,0.6-0.6,0.7-1c0.1-0.4,0.2-0.7,0.2-1.1c0-0.8-0.2-1.3-0.5-1.7
			c-0.3-0.4-0.7-0.6-1.1-0.8c-0.7-0.3-1.5-0.5-2.5-0.7c-0.9-0.2-2.1-0.5-3.5-0.9c-0.9-0.2-1.6-0.5-2.1-0.9c-0.6-0.4-1-0.8-1.4-1.2
			c-0.3-0.4-0.6-0.9-0.7-1.4c-0.1-0.5-0.2-1-0.2-1.5c0-1,0.2-1.9,0.6-2.6c0.4-0.7,1-1.4,1.7-1.8c0.7-0.5,1.5-0.8,2.4-1.1
			c0.9-0.2,1.8-0.4,2.7-0.4c1,0,2,0.1,3,0.4c0.9,0.3,1.7,0.7,2.4,1.2c0.7,0.5,1.3,1.2,1.7,2c0.4,0.8,0.6,1.7,0.6,2.8h-3.5
			c-0.1-1.3-0.5-2.2-1.3-2.7c-0.8-0.5-1.8-0.8-3-0.8c-0.4,0-0.8,0-1.3,0.1c-0.4,0.1-0.8,0.2-1.2,0.4c-0.4,0.2-0.6,0.5-0.9,0.8
			c-0.2,0.3-0.3,0.8-0.3,1.3c0,0.7,0.2,1.3,0.7,1.7c0.4,0.4,1,0.7,1.7,0.9c0.1,0,0.4,0.1,0.9,0.2c0.5,0.1,1.1,0.3,1.7,0.5
			c0.6,0.2,1.3,0.3,1.9,0.5c0.6,0.2,1,0.3,1.3,0.3c0.7,0.2,1.2,0.5,1.7,0.8c0.5,0.4,0.9,0.8,1.2,1.2c0.3,0.5,0.6,0.9,0.7,1.5
			c0.2,0.5,0.2,1,0.2,1.6c0,1.1-0.2,2.1-0.7,2.9c-0.5,0.8-1.1,1.4-1.8,1.9c-0.7,0.5-1.6,0.9-2.6,1.1c-1,0.2-1.9,0.3-2.9,0.3
			c-1.1,0-2.2-0.1-3.2-0.4c-1-0.3-1.9-0.7-2.6-1.3c-0.7-0.6-1.3-1.3-1.8-2.2c-0.4-0.9-0.7-2-0.7-3.2H67.6z"/>
		<path class="st0" d="M109.3,212.9c-0.1-0.6-0.4-1.1-0.6-1.6c-0.3-0.5-0.6-0.9-1-1.3c-0.4-0.4-0.9-0.6-1.4-0.8
			c-0.6-0.2-1.2-0.3-1.9-0.3c-1.1,0-2,0.2-2.8,0.6c-0.8,0.4-1.4,1-1.9,1.7c-0.5,0.7-0.8,1.5-1.1,2.5c-0.2,0.9-0.3,1.9-0.3,2.8
			c0,1,0.1,1.9,0.3,2.8c0.2,0.9,0.6,1.7,1.1,2.5c0.5,0.7,1.1,1.3,1.9,1.7c0.8,0.4,1.7,0.6,2.8,0.6c0.8,0,1.5-0.1,2.1-0.4
			c0.6-0.3,1.1-0.6,1.5-1.1s0.8-1,1-1.7c0.2-0.6,0.4-1.3,0.5-2h3.4c-0.1,1.2-0.3,2.3-0.8,3.3c-0.4,1-1,1.8-1.8,2.6
			c-0.7,0.7-1.6,1.3-2.6,1.7c-1,0.4-2.1,0.6-3.3,0.6c-1.5,0-2.8-0.3-4-0.8c-1.2-0.6-2.2-1.3-3-2.3c-0.8-1-1.5-2.1-1.9-3.3
			c-0.4-1.3-0.7-2.6-0.7-4.1c0-1.4,0.2-2.8,0.7-4c0.4-1.3,1.1-2.4,1.9-3.3c0.8-1,1.8-1.7,3-2.3s2.5-0.8,4-0.8c1.1,0,2.2,0.2,3.2,0.5
			c1,0.3,1.9,0.8,2.6,1.3c0.8,0.6,1.4,1.3,1.8,2.1c0.5,0.8,0.8,1.8,0.9,2.9H109.3z"/>
		<path class="st0" d="M128.3,206.6h3.5v8h9.1v-8h3.5v20h-3.5v-9h-9.1v9h-3.5V206.6z"/>
		<path class="st0" d="M169.5,206.1c1.5,0,2.8,0.3,4,0.8c1.2,0.6,2.2,1.3,3,2.3c0.8,1,1.5,2.1,1.9,3.3c0.4,1.3,0.7,2.6,0.7,4
			c0,1.4-0.2,2.8-0.7,4.1c-0.4,1.3-1.1,2.4-1.9,3.3c-0.8,1-1.8,1.7-3,2.3c-1.2,0.6-2.5,0.8-4,0.8c-1.5,0-2.8-0.3-4-0.8
			c-1.2-0.6-2.2-1.3-3-2.3c-0.8-1-1.5-2.1-1.9-3.3c-0.4-1.3-0.7-2.6-0.7-4.1c0-1.4,0.2-2.8,0.7-4c0.4-1.3,1.1-2.4,1.9-3.3
			c0.8-1,1.8-1.7,3-2.3S168,206.1,169.5,206.1z M169.5,208.9c-1.1,0-2,0.2-2.8,0.6c-0.8,0.4-1.4,1-1.9,1.7c-0.5,0.7-0.8,1.5-1.1,2.5
			c-0.2,0.9-0.3,1.9-0.3,2.8c0,1,0.1,1.9,0.3,2.8c0.2,0.9,0.6,1.7,1.1,2.5c0.5,0.7,1.1,1.3,1.9,1.7c0.8,0.4,1.7,0.6,2.8,0.6
			c1.1,0,2-0.2,2.8-0.6c0.8-0.4,1.4-1,1.9-1.7c0.5-0.7,0.8-1.5,1.1-2.5c0.2-0.9,0.3-1.8,0.3-2.8c0-1-0.1-1.9-0.3-2.8
			c-0.2-0.9-0.6-1.7-1.1-2.5c-0.5-0.7-1.1-1.3-1.9-1.7C171.5,209.2,170.5,208.9,169.5,208.9z"/>
		<path class="st0" d="M203.1,206.1c1.5,0,2.8,0.3,4,0.8c1.2,0.6,2.2,1.3,3,2.3c0.8,1,1.5,2.1,1.9,3.3c0.4,1.3,0.7,2.6,0.7,4
			c0,1.4-0.2,2.8-0.7,4.1c-0.4,1.3-1.1,2.4-1.9,3.3c-0.8,1-1.8,1.7-3,2.3c-1.2,0.6-2.5,0.8-4,0.8s-2.8-0.3-4-0.8
			c-1.2-0.6-2.2-1.3-3-2.3c-0.8-1-1.5-2.1-1.9-3.3c-0.4-1.3-0.7-2.6-0.7-4.1c0-1.4,0.2-2.8,0.7-4c0.4-1.3,1.1-2.4,1.9-3.3
			c0.8-1,1.8-1.7,3-2.3C200.3,206.4,201.6,206.1,203.1,206.1z M203.1,208.9c-1.1,0-2,0.2-2.8,0.6c-0.8,0.4-1.4,1-1.9,1.7
			c-0.5,0.7-0.8,1.5-1.1,2.5s-0.3,1.9-0.3,2.8c0,1,0.1,1.9,0.3,2.8c0.2,0.9,0.6,1.7,1.1,2.5c0.5,0.7,1.1,1.3,1.9,1.7
			c0.8,0.4,1.7,0.6,2.8,0.6s2-0.2,2.8-0.6c0.8-0.4,1.4-1,1.9-1.7c0.5-0.7,0.8-1.5,1.1-2.5c0.2-0.9,0.3-1.8,0.3-2.8
			c0-1-0.1-1.9-0.3-2.8s-0.6-1.7-1.1-2.5c-0.5-0.7-1.1-1.3-1.9-1.7C205.1,209.2,204.2,208.9,203.1,208.9z"/>
		<path class="st0" d="M228.2,206.6h3.5v17h10.2v3h-13.7V206.6z"/>
	</g>
	<g>
		<path class="st1" d="M1.4,172.3c0,13.1,7.9,17.1,24.6,17.1c16.7,0,24.6-4,24.6-17.1v-25.6H34.4v24.9c0,5.3-3.1,7-8.4,7
			c-5.3,0-8.4-1.7-8.4-7v-24.9H1.4V172.3z M56,188h41.5v-11.1H72.3v-30.1H56V188z M103.7,188h41.5v-11.1h-25.2v-30.1h-16.3V188z
			 M149.6,188h43.8v-10h-27.5v-5.5h25.6v-10h-25.6v-5.5h27.5v-10h-43.8V188z M198.8,188h15.6v-23.1h0.1l17.3,23.1h17.8v-41.2H234
			v22.9h-0.2l-16.5-22.9h-18.6V188z M283.1,173.2c2.2,0.3,2.9,1.6,2.9,2.8c0,2-1.4,3.3-6.5,3.3c-2.5,0-4.3-0.3-5.5-0.9
			c-1.2-0.6-1.7-1.6-1.7-2.9h-19.6c0.1,12.1,13.7,13.9,26.3,13.9c18.3,0,26.5-4.7,26.5-14.8c0-7-5.1-10.8-13.3-12l-19.4-2.9
			c-1.6-0.2-2.1-1-2.1-2.1c0-1.7,1.7-2.9,6.5-2.9c1.8,0,3.6,0.2,5.1,0.9c1.5,0.6,2.5,1.6,2.5,3.3h18.9c-0.6-8.7-8.1-13.5-26.5-13.5
			c-13.4,0-23.8,2.9-23.8,13.6c0,5.8,3.3,10.4,11.3,11.6L283.1,173.2z"/>
		<polygon class="st2" points="89.7,4.8 71.1,41.9 116.6,134.5 134.2,94.1 		"/>
		<polygon class="st3" points="113.4,25 147.3,94.1 123.6,134.8 175.2,95.1 128.1,1 		"/>
		<polygon class="st0" points="155,28.2 177.4,11.2 224.2,106.3 138.4,133.2 189.3,97 		"/>
		<path class="st0" d="M4.1,108.7c2,0,3.5,0.8,3.5,1.9c0,1-1.6,1.9-3.5,1.9c-2,0-3.5-0.8-3.5-1.9C0.6,109.5,2.2,108.7,4.1,108.7"/>
		<path class="st0" d="M13.2,100.3c2.9,0,5.3,1.2,5.3,2.8c0,1.5-2.4,2.8-5.3,2.8c-2.9,0-5.3-1.2-5.3-2.8
			C8,101.5,10.3,100.3,13.2,100.3"/>
		<path class="st0" d="M27.3,90c4.1,0,7.5,1.8,7.5,3.9c0,2.2-3.4,3.9-7.5,3.9c-4.1,0-7.5-1.8-7.5-3.9C19.8,91.8,23.2,90,27.3,90"/>
		<path class="st0" d="M47.4,77.6c5.1,0,9.2,2.7,9.2,6.1c0,3.3-4.1,6.1-9.2,6.1c-5.1,0-9.2-2.7-9.2-6.1
			C38.2,80.3,42.3,77.6,47.4,77.6"/>
		<path class="st0" d="M71.6,66.7c6.2,0,11.3,3.2,11.3,7.2c0,4-5.1,7.2-11.3,7.2c-6.2,0-11.3-3.2-11.3-7.2
			C60.3,70,65.4,66.7,71.6,66.7"/>
		<path class="st2" d="M234.4,66c6.2,0,11.3,3.4,11.3,7.5c0,4.1-5.1,7.5-11.3,7.5c-6.2,0-11.3-3.4-11.3-7.5
			C223,69.4,228.1,66,234.4,66"/>
		<path class="st2" d="M255.7,77.5c4.6,0,8.4,2.5,8.4,5.6c0,3.1-3.8,5.6-8.4,5.6c-4.6,0-8.4-2.5-8.4-5.6
			C247.2,80.1,251,77.5,255.7,77.5"/>
		<path class="st2" d="M273.3,86.8c3.8,0,6.9,2.1,6.9,4.6c0,2.5-3.1,4.6-6.9,4.6c-3.8,0-6.9-2.1-6.9-4.6
			C266.4,88.8,269.5,86.8,273.3,86.8"/>
		<path class="st2" d="M288.8,98c3,0,5.5,1.6,5.5,3.6c0,2-2.5,3.6-5.5,3.6c-3,0-5.5-1.6-5.5-3.6C283.3,99.6,285.8,98,288.8,98"/>
		<path class="st2" d="M297.3,107.2c2.2,0,4,1.2,4,2.7c0,1.5-1.8,2.7-4,2.7c-2.2,0-4-1.2-4-2.7C293.3,108.4,295.1,107.2,297.3,107.2
			"/>
		<path class="st2" d="M136.5,50.4c0.7,0,1.4,0,2.1,0.1l7.5,17.9c-2.6,1.4-6,2.3-9.7,2.3c-8.4,0-15.2-4.6-15.2-10.2
			C121.3,55,128.1,50.4,136.5,50.4"/>
		<path class="st3" d="M175,50.4c0.7,0,1.4,0,2.1,0.1l7.5,17.9c-2.6,1.4-6,2.3-9.7,2.3c-8.4,0-15.2-4.6-15.2-10.2
			C159.8,55,166.7,50.4,175,50.4"/>
		<path class="st2" d="M209.1,73.5c-3.6,0-0.6,0-1.1-0.1l-7-14.2c2.1-1.2,3.4-1.8,8.1-1.8c4.8,0,12.1,3.6,12.1,8.1
			C221.2,69.9,212.7,73.5,209.1,73.5"/>
		<path class="st0" d="M101.7,55.8c0.6,0,1.2,0,1.8,0.1l6.3,16.9c-2.2,1.4-5,2.2-8.1,2.2c-7,0-12.7-4.3-12.7-9.6
			C89,60.1,94.7,55.8,101.7,55.8"/>
	</g>
</g>
</svg>
